<svg width="80" height="80" viewBox="0 0 80 80" fill="none" xmlns="http://www.w3.org/2000/svg">
<path d="M40 80.0002C58.4095 80.0002 73.3333 65.0763 73.3333 46.6668C73.3333 28.2573 58.4095 13.3335 40 13.3335C21.5905 13.3335 6.66663 28.2573 6.66663 46.6668C6.66663 65.0763 21.5905 80.0002 40 80.0002Z" fill="#EBECF0"/>
<mask id="mask0_116_1752" style="mask-type:alpha" maskUnits="userSpaceOnUse" x="6" y="0" width="68" height="80">
<path d="M6.66663 0H73.3333V46.6667C73.3333 65.0762 58.4095 80 40 80C21.5905 80 6.66663 65.0762 6.66663 46.6667V0Z" fill="white"/>
</mask>
<g mask="url(#mask0_116_1752)">
<path opacity="0.1" fill-rule="evenodd" clip-rule="evenodd" d="M71.6666 73.3335C71.6666 74.254 57.4889 75.0002 39.9999 75.0002C22.5109 75.0002 8.33325 74.254 8.33325 73.3335C8.33325 72.4222 22.2288 71.6818 39.4763 71.6671L39.9999 71.6668C57.4889 71.6668 71.6666 72.413 71.6666 73.3335ZM79.9999 70.0002C79.9999 70.9206 72.538 71.6668 63.3333 71.6668C54.1285 71.6668 46.6666 70.9206 46.6666 70.0002C46.6666 69.092 53.9308 68.3534 62.966 68.3339L63.3333 68.3335C72.538 68.3335 79.9999 69.0797 79.9999 70.0002Z" fill="#2A2A2A"/>
<path d="M68.2956 54.4453H48.1655C47.7979 54.4453 47.4999 54.7433 47.4999 55.1109V58.9739C47.4999 59.3415 47.7979 59.6395 48.1655 59.6395H68.2956C68.6632 59.6395 68.9612 59.3415 68.9612 58.9739V55.1109C68.9612 54.7433 68.6632 54.4453 68.2956 54.4453Z" fill="url(#paint0_linear_116_1752)"/>
<path opacity="0.161482" d="M49.3417 55.0947H49.174C48.9902 55.0947 48.8412 55.2437 48.8412 55.4275V58.6576C48.8412 58.8414 48.9902 58.9904 49.174 58.9904H49.3417C49.5255 58.9904 49.6745 58.8414 49.6745 58.6576V55.4275C49.6745 55.2437 49.5255 55.0947 49.3417 55.0947Z" fill="white"/>
<path opacity="0.161482" d="M59.4018 55.0947H59.234C59.0502 55.0947 58.9012 55.2437 58.9012 55.4275V58.6576C58.9012 58.8414 59.0502 58.9904 59.234 58.9904H59.4018C59.5856 58.9904 59.7346 58.8414 59.7346 58.6576V55.4275C59.7346 55.2437 59.5856 55.0947 59.4018 55.0947Z" fill="white"/>
<path opacity="0.161482" d="M57.3897 55.0947H57.222C57.0382 55.0947 56.8892 55.2437 56.8892 55.4275V58.6576C56.8892 58.8414 57.0382 58.9904 57.222 58.9904H57.3897C57.5735 58.9904 57.7225 58.8414 57.7225 58.6576V55.4275C57.7225 55.2437 57.5735 55.0947 57.3897 55.0947Z" fill="white"/>
<path opacity="0.161482" d="M55.3777 55.0947H55.21C55.0262 55.0947 54.8772 55.2437 54.8772 55.4275V58.6576C54.8772 58.8414 55.0262 58.9904 55.21 58.9904H55.3777C55.5615 58.9904 55.7105 58.8414 55.7105 58.6576V55.4275C55.7105 55.2437 55.5615 55.0947 55.3777 55.0947Z" fill="white"/>
<path opacity="0.398275" d="M53.203 54.77H51.1859C51.0021 54.77 50.8531 54.919 50.8531 55.1028V58.9821C50.8531 59.1659 51.0021 59.3149 51.1859 59.3149H53.203C53.3868 59.3149 53.5358 59.1659 53.5358 58.9821V55.1028C53.5358 54.919 53.3868 54.77 53.203 54.77Z" fill="#FFC94C"/>
<path opacity="0.161482" d="M61.4137 55.0947H61.246C61.0622 55.0947 60.9132 55.2437 60.9132 55.4275V58.6576C60.9132 58.8414 61.0622 58.9904 61.246 58.9904H61.4137C61.5975 58.9904 61.7465 58.8414 61.7465 58.6576V55.4275C61.7465 55.2437 61.5975 55.0947 61.4137 55.0947Z" fill="white"/>
<path opacity="0.161482" d="M63.4257 55.0947H63.258C63.0742 55.0947 62.9252 55.2437 62.9252 55.4275V58.6576C62.9252 58.8414 63.0742 58.9904 63.258 58.9904H63.4257C63.6095 58.9904 63.7585 58.8414 63.7585 58.6576V55.4275C63.7585 55.2437 63.6095 55.0947 63.4257 55.0947Z" fill="white"/>
<path opacity="0.161482" d="M65.4377 55.0947H65.2699C65.0861 55.0947 64.9371 55.2437 64.9371 55.4275V58.6576C64.9371 58.8414 65.0861 58.9904 65.2699 58.9904H65.4377C65.6215 58.9904 65.7705 58.8414 65.7705 58.6576V55.4275C65.7705 55.2437 65.6215 55.0947 65.4377 55.0947Z" fill="white"/>
<path opacity="0.161482" d="M67.4498 55.0947H67.282C67.0982 55.0947 66.9492 55.2437 66.9492 55.4275V58.6576C66.9492 58.8414 67.0982 58.9904 67.282 58.9904H67.4498C67.6336 58.9904 67.7826 58.8414 67.7826 58.6576V55.4275C67.7826 55.2437 67.6336 55.0947 67.4498 55.0947Z" fill="white"/>
<path d="M69.9722 59.6396H49.8421C49.4745 59.6396 49.1765 59.9376 49.1765 60.3052V64.1682C49.1765 64.5358 49.4745 64.8338 49.8421 64.8338H69.9722C70.3398 64.8338 70.6378 64.5358 70.6378 64.1682V60.3052C70.6378 59.9376 70.3398 59.6396 69.9722 59.6396Z" fill="url(#paint1_linear_116_1752)"/>
<path opacity="0.161482" d="M51.0184 60.2891H50.8506C50.6668 60.2891 50.5178 60.4381 50.5178 60.6219V63.8519C50.5178 64.0357 50.6668 64.1847 50.8506 64.1847H51.0184C51.2022 64.1847 51.3512 64.0357 51.3512 63.8519V60.6219C51.3512 60.4381 51.2022 60.2891 51.0184 60.2891Z" fill="white"/>
<path opacity="0.161482" d="M61.0784 60.2891H60.9107C60.7269 60.2891 60.5779 60.4381 60.5779 60.6219V63.8519C60.5779 64.0357 60.7269 64.1847 60.9107 64.1847H61.0784C61.2622 64.1847 61.4112 64.0357 61.4112 63.8519V60.6219C61.4112 60.4381 61.2622 60.2891 61.0784 60.2891Z" fill="white"/>
<path opacity="0.161482" d="M59.0663 60.2891H58.8986C58.7148 60.2891 58.5658 60.4381 58.5658 60.6219V63.8519C58.5658 64.0357 58.7148 64.1847 58.8986 64.1847H59.0663C59.2501 64.1847 59.3991 64.0357 59.3991 63.8519V60.6219C59.3991 60.4381 59.2501 60.2891 59.0663 60.2891Z" fill="white"/>
<path opacity="0.161482" d="M57.0544 60.2891H56.8866C56.7028 60.2891 56.5538 60.4381 56.5538 60.6219V63.8519C56.5538 64.0357 56.7028 64.1847 56.8866 64.1847H57.0544C57.2382 64.1847 57.3872 64.0357 57.3872 63.8519V60.6219C57.3872 60.4381 57.2382 60.2891 57.0544 60.2891Z" fill="white"/>
<path opacity="0.398275" d="M54.8797 59.9644H52.8626C52.6788 59.9644 52.5298 60.1134 52.5298 60.2972V64.1765C52.5298 64.3603 52.6788 64.5093 52.8626 64.5093H54.8797C55.0635 64.5093 55.2125 64.3603 55.2125 64.1765V60.2972C55.2125 60.1134 55.0635 59.9644 54.8797 59.9644Z" fill="#FFC94C"/>
<path opacity="0.161482" d="M63.0904 60.2891H62.9226C62.7388 60.2891 62.5898 60.4381 62.5898 60.6219V63.8519C62.5898 64.0357 62.7388 64.1847 62.9226 64.1847H63.0904C63.2742 64.1847 63.4232 64.0357 63.4232 63.8519V60.6219C63.4232 60.4381 63.2742 60.2891 63.0904 60.2891Z" fill="white"/>
<path opacity="0.161482" d="M65.1023 60.2891H64.9346C64.7508 60.2891 64.6018 60.4381 64.6018 60.6219V63.8519C64.6018 64.0357 64.7508 64.1847 64.9346 64.1847H65.1023C65.2861 64.1847 65.4351 64.0357 65.4351 63.8519V60.6219C65.4351 60.4381 65.2861 60.2891 65.1023 60.2891Z" fill="white"/>
<path opacity="0.161482" d="M67.1143 60.2891H66.9466C66.7628 60.2891 66.6138 60.4381 66.6138 60.6219V63.8519C66.6138 64.0357 66.7628 64.1847 66.9466 64.1847H67.1143C67.2981 64.1847 67.4471 64.0357 67.4471 63.8519V60.6219C67.4471 60.4381 67.2981 60.2891 67.1143 60.2891Z" fill="white"/>
<path opacity="0.161482" d="M69.1264 60.2891H68.9587C68.7749 60.2891 68.6259 60.4381 68.6259 60.6219V63.8519C68.6259 64.0357 68.7749 64.1847 68.9587 64.1847H69.1264C69.3102 64.1847 69.4592 64.0357 69.4592 63.8519V60.6219C69.4592 60.4381 69.3102 60.2891 69.1264 60.2891Z" fill="white"/>
<path d="M72.655 64.8335H52.5249C52.1573 64.8335 51.8593 65.1315 51.8593 65.4991V69.3621C51.8593 69.7297 52.1573 70.0277 52.5249 70.0277H72.655C73.0226 70.0277 73.3206 69.7297 73.3206 69.3621V65.4991C73.3206 65.1315 73.0226 64.8335 72.655 64.8335Z" fill="url(#paint2_linear_116_1752)"/>
<path opacity="0.161482" d="M53.7011 65.4829H53.5334C53.3496 65.4829 53.2006 65.6319 53.2006 65.8157V69.0457C53.2006 69.2295 53.3496 69.3785 53.5334 69.3785H53.7011C53.8849 69.3785 54.0339 69.2295 54.0339 69.0457V65.8157C54.0339 65.6319 53.8849 65.4829 53.7011 65.4829Z" fill="white"/>
<path opacity="0.161482" d="M63.7612 65.4829H63.5934C63.4096 65.4829 63.2606 65.6319 63.2606 65.8157V69.0457C63.2606 69.2295 63.4096 69.3785 63.5934 69.3785H63.7612C63.945 69.3785 64.094 69.2295 64.094 69.0457V65.8157C64.094 65.6319 63.945 65.4829 63.7612 65.4829Z" fill="white"/>
<path opacity="0.161482" d="M61.7491 65.4829H61.5813C61.3975 65.4829 61.2485 65.6319 61.2485 65.8157V69.0457C61.2485 69.2295 61.3975 69.3785 61.5813 69.3785H61.7491C61.9329 69.3785 62.0819 69.2295 62.0819 69.0457V65.8157C62.0819 65.6319 61.9329 65.4829 61.7491 65.4829Z" fill="white"/>
<path opacity="0.161482" d="M59.7371 65.4829H59.5694C59.3856 65.4829 59.2366 65.6319 59.2366 65.8157V69.0457C59.2366 69.2295 59.3856 69.3785 59.5694 69.3785H59.7371C59.9209 69.3785 60.0699 69.2295 60.0699 69.0457V65.8157C60.0699 65.6319 59.9209 65.4829 59.7371 65.4829Z" fill="white"/>
<path opacity="0.398275" d="M57.5624 65.1582H55.5453C55.3615 65.1582 55.2125 65.3072 55.2125 65.491V69.3703C55.2125 69.5541 55.3615 69.7031 55.5453 69.7031H57.5624C57.7462 69.7031 57.8952 69.5541 57.8952 69.3703V65.491C57.8952 65.3072 57.7462 65.1582 57.5624 65.1582Z" fill="#FFC94C"/>
<path opacity="0.161482" d="M65.7731 65.4829H65.6054C65.4216 65.4829 65.2726 65.6319 65.2726 65.8157V69.0457C65.2726 69.2295 65.4216 69.3785 65.6054 69.3785H65.7731C65.9569 69.3785 66.1059 69.2295 66.1059 69.0457V65.8157C66.1059 65.6319 65.9569 65.4829 65.7731 65.4829Z" fill="white"/>
<path opacity="0.161482" d="M67.7851 65.4829H67.6173C67.4335 65.4829 67.2845 65.6319 67.2845 65.8157V69.0457C67.2845 69.2295 67.4335 69.3785 67.6173 69.3785H67.7851C67.9689 69.3785 68.1179 69.2295 68.1179 69.0457V65.8157C68.1179 65.6319 67.9689 65.4829 67.7851 65.4829Z" fill="white"/>
<path opacity="0.161482" d="M69.797 65.4829H69.6293C69.4455 65.4829 69.2965 65.6319 69.2965 65.8157V69.0457C69.2965 69.2295 69.4455 69.3785 69.6293 69.3785H69.797C69.9808 69.3785 70.1298 69.2295 70.1298 69.0457V65.8157C70.1298 65.6319 69.9808 65.4829 69.797 65.4829Z" fill="white"/>
<path opacity="0.161482" d="M71.8091 65.4829H71.6414C71.4576 65.4829 71.3086 65.6319 71.3086 65.8157V69.0457C71.3086 69.2295 71.4576 69.3785 71.6414 69.3785H71.8091C71.9929 69.3785 72.1419 69.2295 72.1419 69.0457V65.8157C72.1419 65.6319 71.9929 65.4829 71.8091 65.4829Z" fill="white"/>
<path d="M61.0907 54.4453C66.996 54.4453 71.7831 49.7193 71.7831 43.8894C71.7831 38.0595 66.996 33.3335 61.0907 33.3335C55.1855 33.3335 50.3983 38.0595 50.3983 43.8894C50.3983 49.7193 55.1855 54.4453 61.0907 54.4453Z" fill="url(#paint3_linear_116_1752)"/>
<path d="M61.0908 52.4659C65.8888 52.4659 69.7784 48.626 69.7784 43.8892C69.7784 39.1524 65.8888 35.3125 61.0908 35.3125C56.2928 35.3125 52.4032 39.1524 52.4032 43.8892C52.4032 48.626 56.2928 52.4659 61.0908 52.4659Z" fill="url(#paint4_linear_116_1752)"/>
<path fill-rule="evenodd" clip-rule="evenodd" d="M58.9414 39.9229C59.4758 39.8296 60.0037 40.0238 60.3535 40.4429L62.7459 43.3103L64.9463 42.4113C65.4354 42.2116 65.9737 42.3186 66.3515 42.6907C66.7291 43.0628 66.8491 43.6041 66.6645 44.1035L65.9695 45.9922C65.7869 46.4883 65.3712 46.8718 64.8572 46.972C64.7618 46.9906 64.6663 46.9996 64.5721 46.9996C64.1439 46.9996 63.7396 46.8118 63.4557 46.4714L59.2881 41.4764C59.2428 41.4221 59.1563 41.4373 59.1316 41.5038L57.7751 45.1727C57.747 45.2485 57.8216 45.3219 57.8958 45.2916L59.5599 44.6118C59.9523 44.4516 60.401 44.6573 60.5359 45.07C60.659 45.4469 60.4521 45.8542 60.0883 46.0027L57.9144 46.8909C57.5119 47.0553 57.0495 47.026 56.6872 46.7843C56.1703 46.4395 55.9733 45.7909 56.1823 45.2258L57.7846 40.8929C57.9745 40.3791 58.4069 40.0166 58.9414 39.9229ZM64.9929 44.005L64.9614 44.012L63.7457 44.5086L64.475 45.3827C64.5204 45.4371 64.6071 45.4219 64.6316 45.3551L65.0823 44.1308C65.1102 44.055 65.0356 43.9817 64.9614 44.012L64.9929 44.005Z" fill="#FFC94C"/>
<path fill-rule="evenodd" clip-rule="evenodd" d="M62.8568 36.4938C64.6928 36.9521 66.274 38.0705 67.3312 39.5798L56.769 50.142C55.2597 49.0848 54.1413 47.5036 53.683 45.6676L62.8568 36.4938Z" fill="url(#paint5_linear_116_1752)"/>
<path fill-rule="evenodd" clip-rule="evenodd" d="M68.0216 40.7349C68.3456 41.4386 68.558 42.18 68.6588 42.9323L60.167 51.4241C59.4147 51.3233 58.6733 51.1109 57.9696 50.7869L68.0216 40.7349Z" fill="url(#paint6_linear_116_1752)"/>
<path fill-rule="evenodd" clip-rule="evenodd" d="M68.2956 54.4453C68.6632 54.4453 68.9612 54.7433 68.9612 55.1109V58.9739C68.9612 59.3415 68.6632 59.6395 68.2956 59.6395H69.9723C70.3399 59.6395 70.6379 59.9375 70.6379 60.3051V64.1681C70.6379 64.5357 70.3399 64.8337 69.9723 64.8337H72.6549C73.0225 64.8337 73.3205 65.1317 73.3205 65.4993V69.3623C73.3205 69.7299 73.0225 70.0279 72.6549 70.0279H52.5248C52.1572 70.0279 51.8592 69.7299 51.8592 69.3623V65.4993C51.8592 65.1317 52.1572 64.8337 52.5248 64.8337H49.8421C49.4745 64.8337 49.1765 64.5357 49.1765 64.1681V60.3051C49.1765 59.9375 49.4745 59.6395 49.8421 59.6395H48.1655C47.7979 59.6395 47.4999 59.3415 47.4999 58.9739V55.1109C47.4999 54.7433 47.7979 54.4453 48.1655 54.4453H68.2956ZM61.0907 33.3335C66.996 33.3335 71.7832 38.0595 71.7832 43.8894C71.7832 49.7193 66.996 54.4453 61.0907 54.4453C55.1855 54.4453 50.3983 49.7193 50.3983 43.8894C50.3983 38.0595 55.1855 33.3335 61.0907 33.3335Z" fill="url(#paint7_linear_116_1752)"/>
<path d="M24.2704 44.4602L28.3332 41.667L34.1665 60.8337H30.2303C26.0227 60.8337 22.1959 63.2708 20.4165 67.0837L18.0285 72.2009C17.706 72.892 17.0125 73.3337 16.2499 73.3337C15.5595 73.3337 14.9999 72.774 14.9999 72.0837V62.0837C14.9999 55.0411 18.467 48.45 24.2704 44.4602Z" fill="#A9A9AE"/>
<path d="M24.2704 44.4602L28.3332 41.667L34.1665 60.8337H30.2303C26.0227 60.8337 22.1959 63.2708 20.4165 67.0837L18.0285 72.2009C17.706 72.892 17.0125 73.3337 16.2499 73.3337C15.5595 73.3337 14.9999 72.774 14.9999 72.0837V62.0837C14.9999 55.0411 18.467 48.45 24.2704 44.4602Z" fill="url(#paint8_linear_116_1752)"/>
<path d="M55.7294 44.4602L51.6665 41.667L45.8332 60.8337H49.7695C53.9771 60.8337 57.8039 63.2708 59.5832 67.0837L61.9713 72.2009C62.2938 72.892 62.9873 73.3337 63.7499 73.3337C64.4402 73.3337 64.9999 72.774 64.9999 72.0837V62.0837C64.9999 55.0411 61.5328 48.45 55.7294 44.4602Z" fill="#A9A9AE"/>
<path d="M55.7294 44.4602L51.6665 41.667L45.8332 60.8337H49.7695C53.9771 60.8337 57.8039 63.2708 59.5832 67.0837L61.9713 72.2009C62.2938 72.892 62.9873 73.3337 63.7499 73.3337C64.4402 73.3337 64.9999 72.774 64.9999 72.0837V62.0837C64.9999 55.0411 61.5328 48.45 55.7294 44.4602Z" fill="url(#paint9_linear_116_1752)"/>
<path d="M28.3333 28.6683C28.3333 22.5102 30.3859 16.5278 34.1666 11.6669L38.6843 5.85835C39.2494 5.13177 40.2966 5.00088 41.0232 5.566C41.1324 5.65094 41.2306 5.74915 41.3155 5.85835L45.8333 11.6669C49.614 16.5278 51.6666 22.5102 51.6666 28.6683V41.6669C51.6666 45.4755 51.2529 49.2729 50.4327 52.9922L49.2804 58.218C48.9435 59.7457 47.5896 60.8335 46.0252 60.8335H33.9746C32.4102 60.8335 31.0563 59.7457 30.7195 58.218L29.5671 52.9922C28.747 49.2729 28.3333 45.4755 28.3333 41.6669V28.6683Z" fill="#F7F7F9"/>
<path d="M28.3333 28.6683C28.3333 22.5102 30.3859 16.5278 34.1666 11.6669L38.6843 5.85835C39.2494 5.13177 40.2966 5.00088 41.0232 5.566C41.1324 5.65094 41.2306 5.74915 41.3155 5.85835L45.8333 11.6669C49.614 16.5278 51.6666 22.5102 51.6666 28.6683V41.6669C51.6666 45.4755 51.2529 49.2729 50.4327 52.9922L49.2804 58.218C48.9435 59.7457 47.5896 60.8335 46.0252 60.8335H33.9746C32.4102 60.8335 31.0563 59.7457 30.7195 58.218L29.5671 52.9922C28.747 49.2729 28.3333 45.4755 28.3333 41.6669V28.6683Z" fill="url(#paint10_linear_116_1752)"/>
<path d="M41.0231 5.566C41.1323 5.65094 41.2305 5.74915 41.3155 5.85835L43.6333 8.83901H36.3658L38.6843 5.85835C39.2494 5.13177 40.2965 5.00088 41.0231 5.566Z" fill="#A9A9AE"/>
<path d="M41.0231 5.566C41.1323 5.65094 41.2305 5.74915 41.3155 5.85835L43.6333 8.83901H36.3658L38.6843 5.85835C39.2494 5.13177 40.2965 5.00088 41.0231 5.566Z" fill="url(#paint11_linear_116_1752)"/>
<path d="M48.3332 66.2502C48.3332 66.9405 47.7735 67.5002 47.0832 67.5002H32.9165C32.2261 67.5002 31.6665 66.9405 31.6665 66.2502C31.6665 65.4244 31.8241 64.6063 32.1307 63.8396L33.3332 60.8335H46.6665L47.8689 63.8396C48.1756 64.6063 48.3332 65.4244 48.3332 66.2502Z" fill="#A9A9AE"/>
<path d="M48.3332 66.2502C48.3332 66.9405 47.7735 67.5002 47.0832 67.5002H32.9165C32.2261 67.5002 31.6665 66.9405 31.6665 66.2502C31.6665 65.4244 31.8241 64.6063 32.1307 63.8396L33.3332 60.8335H46.6665L47.8689 63.8396C48.1756 64.6063 48.3332 65.4244 48.3332 66.2502Z" fill="url(#paint12_linear_116_1752)"/>
<path d="M38.7499 47.9171L38.8214 47.8456C39.4723 47.1947 40.5275 47.1947 41.1784 47.8456L41.2499 47.9171C42.044 48.7112 42.4555 49.8102 42.3783 50.9306L40.8906 72.5024C40.8583 72.9705 40.4691 73.3337 39.9999 73.3337C39.5307 73.3337 39.1415 72.9705 39.1092 72.5024L37.6215 50.9306C37.5442 49.8102 37.9558 48.7112 38.7499 47.9171Z" fill="#A9A9AE"/>
<path d="M38.7499 47.9171L38.8214 47.8456C39.4723 47.1947 40.5275 47.1947 41.1784 47.8456L41.2499 47.9171C42.044 48.7112 42.4555 49.8102 42.3783 50.9306L40.8906 72.5024C40.8583 72.9705 40.4691 73.3337 39.9999 73.3337C39.5307 73.3337 39.1415 72.9705 39.1092 72.5024L37.6215 50.9306C37.5442 49.8102 37.9558 48.7112 38.7499 47.9171Z" fill="url(#paint13_linear_116_1752)"/>
<path d="M43.3332 19.1668C43.3332 17.3259 41.8408 15.8335 39.9998 15.8335C38.1589 15.8335 36.6665 17.3259 36.6665 19.1668C36.6665 21.0078 38.1589 22.5002 39.9998 22.5002C41.8408 22.5002 43.3332 21.0078 43.3332 19.1668Z" fill="#54545E"/>
<path d="M43.3332 19.1668C43.3332 17.3259 41.8408 15.8335 39.9998 15.8335C38.1589 15.8335 36.6665 17.3259 36.6665 19.1668C36.6665 21.0078 38.1589 22.5002 39.9998 22.5002C41.8408 22.5002 43.3332 21.0078 43.3332 19.1668Z" fill="url(#paint14_linear_116_1752)" stroke="#EBECF0"/>
<mask id="mask1_116_1752" style="mask-type:alpha" maskUnits="userSpaceOnUse" x="36" y="15" width="8" height="8">
<path d="M43.3332 19.1668C43.3332 17.3259 41.8408 15.8335 39.9998 15.8335C38.1589 15.8335 36.6665 17.3259 36.6665 19.1668C36.6665 21.0078 38.1589 22.5002 39.9998 22.5002C41.8408 22.5002 43.3332 21.0078 43.3332 19.1668Z" fill="white"/>
</mask>
<g mask="url(#mask1_116_1752)">
<path fill-rule="evenodd" clip-rule="evenodd" d="M58.4729 22.9133L35.9339 45.4524L34.1661 43.6846L56.7051 21.1456L58.4729 22.9133ZM48.7502 13.1906L26.2112 35.7296L24.4434 33.9619L46.9824 11.4229L48.7502 13.1906ZM54.4954 18.9359L34.6081 38.8232L31.0725 35.2877L50.9599 15.4003L54.4954 18.9359Z" fill="url(#paint15_linear_116_1752)"/>
</g>
<path d="M43.3332 29.1668C43.3332 27.3259 41.8408 25.8335 39.9998 25.8335C38.1589 25.8335 36.6665 27.3259 36.6665 29.1668C36.6665 31.0078 38.1589 32.5002 39.9998 32.5002C41.8408 32.5002 43.3332 31.0078 43.3332 29.1668Z" fill="#54545E"/>
<path d="M43.3332 29.1668C43.3332 27.3259 41.8408 25.8335 39.9998 25.8335C38.1589 25.8335 36.6665 27.3259 36.6665 29.1668C36.6665 31.0078 38.1589 32.5002 39.9998 32.5002C41.8408 32.5002 43.3332 31.0078 43.3332 29.1668Z" fill="url(#paint16_linear_116_1752)" stroke="#EBECF0"/>
<mask id="mask2_116_1752" style="mask-type:alpha" maskUnits="userSpaceOnUse" x="36" y="25" width="8" height="8">
<path d="M43.3332 29.1668C43.3332 27.3259 41.8408 25.8335 39.9998 25.8335C38.1589 25.8335 36.6665 27.3259 36.6665 29.1668C36.6665 31.0078 38.1589 32.5002 39.9998 32.5002C41.8408 32.5002 43.3332 31.0078 43.3332 29.1668Z" fill="white"/>
</mask>
<g mask="url(#mask2_116_1752)">
<path fill-rule="evenodd" clip-rule="evenodd" d="M58.4729 22.9133L35.9339 45.4524L34.1661 43.6846L56.7051 21.1456L58.4729 22.9133ZM48.7502 13.1906L26.2112 35.7296L24.4434 33.9619L46.9824 11.4229L48.7502 13.1906ZM54.4954 18.9359L34.6081 38.8232L31.0725 35.2877L50.9599 15.4003L54.4954 18.9359Z" fill="url(#paint17_linear_116_1752)"/>
</g>
<path d="M43.3332 39.1668C43.3332 37.3259 41.8408 35.8335 39.9998 35.8335C38.1589 35.8335 36.6665 37.3259 36.6665 39.1668C36.6665 41.0078 38.1589 42.5002 39.9998 42.5002C41.8408 42.5002 43.3332 41.0078 43.3332 39.1668Z" fill="#54545E"/>
<path d="M43.3332 39.1668C43.3332 37.3259 41.8408 35.8335 39.9998 35.8335C38.1589 35.8335 36.6665 37.3259 36.6665 39.1668C36.6665 41.0078 38.1589 42.5002 39.9998 42.5002C41.8408 42.5002 43.3332 41.0078 43.3332 39.1668Z" fill="url(#paint18_linear_116_1752)" stroke="#EBECF0"/>
<mask id="mask3_116_1752" style="mask-type:alpha" maskUnits="userSpaceOnUse" x="36" y="35" width="8" height="8">
<path d="M43.3332 39.1668C43.3332 37.3259 41.8408 35.8335 39.9998 35.8335C38.1589 35.8335 36.6665 37.3259 36.6665 39.1668C36.6665 41.0078 38.1589 42.5002 39.9998 42.5002C41.8408 42.5002 43.3332 41.0078 43.3332 39.1668Z" fill="white"/>
</mask>
<g mask="url(#mask3_116_1752)">
<path fill-rule="evenodd" clip-rule="evenodd" d="M58.4729 22.9133L35.9339 45.4524L34.1661 43.6846L56.7051 21.1456L58.4729 22.9133ZM48.7502 13.1906L26.2112 35.7296L24.4434 33.9619L46.9824 11.4229L48.7502 13.1906ZM54.4954 18.9359L34.6081 38.8232L31.0725 35.2877L50.9599 15.4003L54.4954 18.9359Z" fill="url(#paint19_linear_116_1752)"/>
</g>
</g>
<defs>
<linearGradient id="paint0_linear_116_1752" x1="47.4999" y1="56.8903" x2="67.8432" y2="61.8139" gradientUnits="userSpaceOnUse">
<stop stop-color="#FF8439"/>
<stop offset="1" stop-color="#FFC94C"/>
</linearGradient>
<linearGradient id="paint1_linear_116_1752" x1="49.1765" y1="62.0846" x2="69.5199" y2="67.0082" gradientUnits="userSpaceOnUse">
<stop stop-color="#FF8439"/>
<stop offset="1" stop-color="#FFC94C"/>
</linearGradient>
<linearGradient id="paint2_linear_116_1752" x1="51.8593" y1="67.2785" x2="72.2026" y2="72.2021" gradientUnits="userSpaceOnUse">
<stop stop-color="#FF8439"/>
<stop offset="1" stop-color="#FFC94C"/>
</linearGradient>
<linearGradient id="paint3_linear_116_1752" x1="50.3983" y1="33.6013" x2="71.5154" y2="54.4488" gradientUnits="userSpaceOnUse">
<stop stop-color="#FF8439"/>
<stop offset="1" stop-color="#FFC94C"/>
</linearGradient>
<linearGradient id="paint4_linear_116_1752" x1="52.4032" y1="35.5301" x2="69.5608" y2="52.4687" gradientUnits="userSpaceOnUse">
<stop stop-color="#FFC94C"/>
<stop offset="1" stop-color="#FF8439"/>
</linearGradient>
<linearGradient id="paint5_linear_116_1752" x1="65.5249" y1="37.6059" x2="54.7951" y2="48.3357" gradientUnits="userSpaceOnUse">
<stop stop-color="white" stop-opacity="0.197853"/>
<stop offset="1" stop-color="white" stop-opacity="0"/>
</linearGradient>
<linearGradient id="paint6_linear_116_1752" x1="68.7303" y1="41.4435" x2="58.6782" y2="51.4956" gradientUnits="userSpaceOnUse">
<stop stop-color="white" stop-opacity="0.197853"/>
<stop offset="1" stop-color="white" stop-opacity="0"/>
</linearGradient>
<linearGradient id="paint7_linear_116_1752" x1="55.8689" y1="70.0279" x2="70.2885" y2="51.9971" gradientUnits="userSpaceOnUse">
<stop stop-opacity="0.24"/>
<stop offset="1" stop-color="#333333" stop-opacity="0"/>
</linearGradient>
<linearGradient id="paint8_linear_116_1752" x1="24.5832" y1="41.667" x2="24.5832" y2="73.3337" gradientUnits="userSpaceOnUse">
<stop stop-color="white" stop-opacity="0.5"/>
<stop offset="1" stop-opacity="0.5"/>
</linearGradient>
<linearGradient id="paint9_linear_116_1752" x1="55.4165" y1="41.667" x2="55.4165" y2="73.3337" gradientUnits="userSpaceOnUse">
<stop stop-color="white" stop-opacity="0.5"/>
<stop offset="1" stop-opacity="0.5"/>
</linearGradient>
<linearGradient id="paint10_linear_116_1752" x1="44.7908" y1="43.0355" x2="29.2333" y2="43.0355" gradientUnits="userSpaceOnUse">
<stop stop-color="white" stop-opacity="0"/>
<stop offset="1" stop-opacity="0.06"/>
</linearGradient>
<linearGradient id="paint11_linear_116_1752" x1="39.9996" y1="5.21484" x2="39.9996" y2="11.6751" gradientUnits="userSpaceOnUse">
<stop stop-color="white" stop-opacity="0.5"/>
<stop offset="1" stop-opacity="0.5"/>
</linearGradient>
<linearGradient id="paint12_linear_116_1752" x1="39.9998" y1="60.8335" x2="39.9998" y2="67.5002" gradientUnits="userSpaceOnUse">
<stop stop-opacity="0.24"/>
<stop offset="1" stop-opacity="0"/>
</linearGradient>
<linearGradient id="paint13_linear_116_1752" x1="39.9999" y1="47.3574" x2="39.9999" y2="73.3337" gradientUnits="userSpaceOnUse">
<stop stop-color="white" stop-opacity="0.5"/>
<stop offset="1" stop-opacity="0.5"/>
</linearGradient>
<linearGradient id="paint14_linear_116_1752" x1="43.3332" y1="22.5002" x2="36.6665" y2="22.5002" gradientUnits="userSpaceOnUse">
<stop stop-color="white" stop-opacity="0.24"/>
<stop offset="1" stop-color="white" stop-opacity="0"/>
</linearGradient>
<linearGradient id="paint15_linear_116_1752" x1="53.8832" y1="15.7501" x2="42.0256" y2="25.7589" gradientUnits="userSpaceOnUse">
<stop stop-color="#EEEEEE"/>
<stop offset="1" stop-color="#D8D8D8" stop-opacity="0"/>
</linearGradient>
<linearGradient id="paint16_linear_116_1752" x1="43.3332" y1="32.5002" x2="36.6665" y2="32.5002" gradientUnits="userSpaceOnUse">
<stop stop-color="white" stop-opacity="0.24"/>
<stop offset="1" stop-color="white" stop-opacity="0"/>
</linearGradient>
<linearGradient id="paint17_linear_116_1752" x1="52.7277" y1="17.1681" x2="38.1887" y2="30.946" gradientUnits="userSpaceOnUse">
<stop stop-color="#EEEEEE"/>
<stop offset="1" stop-color="#D8D8D8" stop-opacity="0"/>
</linearGradient>
<linearGradient id="paint18_linear_116_1752" x1="43.3332" y1="42.5002" x2="36.6665" y2="42.5002" gradientUnits="userSpaceOnUse">
<stop stop-color="white" stop-opacity="0.24"/>
<stop offset="1" stop-color="white" stop-opacity="0"/>
</linearGradient>
<linearGradient id="paint19_linear_116_1752" x1="49.1268" y1="20.4264" x2="33.2968" y2="37.5729" gradientUnits="userSpaceOnUse">
<stop stop-color="#EEEEEE"/>
<stop offset="1" stop-color="#D8D8D8" stop-opacity="0"/>
</linearGradient>
</defs>
</svg>
