<?xml version="1.0" encoding="UTF-8" standalone="no"?>
<svg
   xmlns:dc="http://purl.org/dc/elements/1.1/"
   xmlns:cc="http://creativecommons.org/ns#"
   xmlns:rdf="http://www.w3.org/1999/02/22-rdf-syntax-ns#"
   xmlns:svg="http://www.w3.org/2000/svg"
   xmlns="http://www.w3.org/2000/svg"
   xmlns:sodipodi="http://sodipodi.sourceforge.net/DTD/sodipodi-0.dtd"
   xmlns:inkscape="http://www.inkscape.org/namespaces/inkscape"
   enable-background="new 0 0 64 64"
   height="30.384769"
   id="Layer_1"
   version="1.1"
   viewBox="0 0 124.31714 30.384769"
   width="124.31714"
   xml:space="preserve"
   sodipodi:docname="airwallex_cc_icon.svg"
   inkscape:version="1.0.2 (e86c870879, 2021-01-15)"><metadata
     id="metadata230"><rdf:RDF><cc:Work
         rdf:about=""><dc:format>image/svg+xml</dc:format><dc:type
           rdf:resource="http://purl.org/dc/dcmitype/StillImage" /><dc:title></dc:title></cc:Work></rdf:RDF></metadata><defs
     id="defs228" /><sodipodi:namedview
     pagecolor="#ffffff"
     bordercolor="#666666"
     borderopacity="1"
     objecttolerance="10"
     gridtolerance="10"
     guidetolerance="10"
     inkscape:pageopacity="0"
     inkscape:pageshadow="2"
     inkscape:window-width="3600"
     inkscape:window-height="1459"
     id="namedview226"
     showgrid="false"
     fit-margin-top="0"
     fit-margin-left="0"
     fit-margin-right="0"
     fit-margin-bottom="0"
     inkscape:zoom="13.109375"
     inkscape:cx="31.5"
     inkscape:cy="15.480308"
     inkscape:window-x="0"
     inkscape:window-y="0"
     inkscape:window-maximized="0"
     inkscape:current-layer="Layer_1" /><g
     id="g223"
     transform="translate(-0.5,-16.519692)"><g
       id="g205"><g
         id="g143"><g
           id="g141"><polygon
             fill="#3c58bf"
             points="23.6,41 26.8,23 31.8,23 28.7,41 "
             id="polygon139" /></g></g><g
         id="g149"><g
           id="g147"><polygon
             fill="#293688"
             points="23.6,41 27.7,23 31.8,23 28.7,41 "
             id="polygon145" /></g></g><g
         id="g155"><g
           id="g153"><path
             d="m 46.8,23.2 c -1,-0.4 -2.6,-0.8 -4.6,-0.8 -5,0 -8.6,2.5 -8.6,6.1 0,2.7 2.5,4.1 4.5,5 2,0.9 2.6,1.5 2.6,2.3 0,1.2 -1.6,1.8 -3,1.8 -2,0 -3.1,-0.3 -4.8,-1 l -0.7,-0.3 -0.7,4.1 c 1.2,0.5 3.4,1 5.7,1 5.3,0 8.8,-2.5 8.8,-6.3 0,-2.1 -1.3,-3.7 -4.3,-5 -1.8,-0.9 -2.9,-1.4 -2.9,-2.3 0,-0.8 0.9,-1.6 2.9,-1.6 1.7,0 2.9,0.3 3.8,0.7 l 0.5,0.2 z"
             fill="#3c58bf"
             id="path151" /></g></g><g
         id="g161"><g
           id="g159"><path
             d="m 46.8,23.2 c -1,-0.4 -2.6,-0.8 -4.6,-0.8 -5,0 -7.7,2.5 -7.7,6.1 0,2.7 1.6,4.1 3.6,5 2,0.9 2.6,1.5 2.6,2.3 0,1.2 -1.6,1.8 -3,1.8 -2,0 -3.1,-0.3 -4.8,-1 l -0.7,-0.3 -0.7,4.1 c 1.2,0.5 3.4,1 5.7,1 5.3,0 8.8,-2.5 8.8,-6.3 0,-2.1 -1.3,-3.7 -4.3,-5 -1.8,-0.9 -2.9,-1.4 -2.9,-2.3 0,-0.8 0.9,-1.6 2.9,-1.6 1.7,0 2.9,0.3 3.8,0.7 l 0.5,0.2 z"
             fill="#293688"
             id="path157" /></g></g><g
         id="g167"><g
           id="g165"><path
             d="m 55.4,23 c -1.2,0 -2.1,0.1 -2.6,1.3 L 45.3,41 h 5.4 l 1,-3 h 6.4 l 0.6,3 h 4.8 L 59.3,23 Z m -2.3,12 c 0.3,-0.9 2,-5.3 2,-5.3 0,0 0.4,-1.1 0.7,-1.8 l 0.3,1.7 c 0,0 1,4.5 1.2,5.5 h -4.2 z"
             fill="#3c58bf"
             id="path163" /></g></g><g
         id="g173"><g
           id="g171"><path
             d="m 56.6,23 c -1.2,0 -2.1,0.1 -2.6,1.3 L 45.3,41 h 5.4 l 1,-3 h 6.4 l 0.6,3 h 4.8 L 59.3,23 Z m -3.5,12 c 0.4,-1 2,-5.3 2,-5.3 0,0 0.4,-1.1 0.7,-1.8 l 0.3,1.7 c 0,0 1,4.5 1.2,5.5 h -4.2 z"
             fill="#293688"
             id="path169" /></g></g><g
         id="g179"><g
           id="g177"><path
             d="M 14.4,35.6 13.9,33 C 13,30 10.1,26.7 6.9,25.1 l 4.5,16 h 5.4 l 8.1,-18 h -5.4 z"
             fill="#3c58bf"
             id="path175" /></g></g><g
         id="g185"><g
           id="g183"><path
             d="M 14.4,35.6 13.9,33 C 13,30 10.1,26.7 6.9,25.1 l 4.5,16 h 5.4 l 8.1,-18 h -4.4 z"
             fill="#293688"
             id="path181" /></g></g><g
         id="g191"><g
           id="g189"><path
             d="m 0.5,23 0.9,0.2 c 6.4,1.5 10.8,5.3 12.5,9.8 L 12.1,24.5 C 11.8,23.3 10.9,23 9.8,23 Z"
             fill="#ffbc00"
             id="path187" /></g></g><g
         id="g197"><g
           id="g195"><path
             d="m 0.5,23 v 0 c 6.4,1.5 11.7,5.4 13.4,9.9 L 12.2,25.8 C 11.9,24.6 10.9,23.9 9.8,23.9 Z"
             fill="#f7981d"
             id="path193" /></g></g><g
         id="g203"><g
           id="g201"><path
             d="m 0.5,23 v 0 c 6.4,1.5 11.7,5.4 13.4,9.9 L 12.7,29 C 12.4,27.8 12,26.6 10.6,26.1 Z"
             fill="#ed7c00"
             id="path199" /></g></g></g><g
       id="g209"><path
         d="M 19.4,35 16,31.6 14.4,35.4 14,32.9 C 13.1,29.9 10.2,26.6 7,25 l 4.5,16 h 5.4 z"
         fill="#051244"
         id="path207" /></g><g
       id="g213"><polygon
         fill="#051244"
         points="24.4,36.6 23.6,41 28.7,41 "
         id="polygon211" /></g><g
       id="g217"><path
         d="m 40.2,34.8 v 0 c 0.4,0.4 0.6,0.7 0.5,1.1 0,1.2 -1.6,1.8 -3,1.8 -2,0 -3.1,-0.3 -4.8,-1 l -0.7,-0.3 -0.7,4.1 c 1.2,0.5 3.4,1 5.7,1 3.2,0 5.8,-0.9 7.3,-2.5 z"
         fill="#051244"
         id="path215" /></g><g
       id="g221"><path
         d="m 46,41 h 4.7 l 1,-3 h 6.4 l 0.6,3 h 4.8 l -1.7,-7.3 -6,-5.8 0.3,1.6 c 0,0 1,4.5 1.2,5.5 h -4.2 c 0.4,-1 2,-5.3 2,-5.3 0,0 0.4,-1.1 0.7,-1.8"
         fill="#051244"
         id="path219" /></g></g><g
     id="g597"
     transform="matrix(0.80382986,0,0,0.80382986,73.273945,-10.530171)"><g
       id="g441"><g
         id="g439"><path
           d="M 63.5,32 C 63.5,42.4 55.1,50.9 44.6,50.9 34.2,50.9 25.7,42.4 25.7,32 v 0 c 0,-10.4 8.4,-18.9 18.8,-18.9 10.6,0 19,8.5 19,18.9 0,0 0,0 0,0 z"
           fill="#ffb600"
           id="path437" /></g></g><g
       id="g447"><g
         id="g445"><path
           d="m 44.6,13.1 c 10.4,0 18.9,8.5 18.9,18.9 0,0 0,0 0,0 0,10.4 -8.4,18.9 -18.9,18.9 C 34.2,50.9 25.7,42.4 25.7,32"
           fill="#f7981d"
           id="path443" /></g></g><g
       id="g453"><g
         id="g451"><path
           d="m 44.6,13.1 c 10.4,0 18.9,8.5 18.9,18.9 0,0 0,0 0,0 0,10.4 -8.4,18.9 -18.9,18.9"
           fill="#ff8500"
           id="path449" /></g></g><g
       id="g459"><g
         id="g457"><path
           d="M 19.2,13.1 C 8.9,13.2 0.5,21.6 0.5,32 c 0,10.4 8.4,18.9 18.9,18.9 4.9,0 9.3,-1.9 12.7,-4.9 v 0 0 c 0.7,-0.6 1.3,-1.3 1.9,-2 h -3.9 c -0.5,-0.6 -1,-1.3 -1.4,-1.9 h 6.7 c 0.4,-0.6 0.8,-1.3 1.1,-2 h -8.9 c -0.3,-0.6 -0.6,-1.3 -0.8,-2 h 10.4 c 0.6,-1.9 1,-3.9 1,-6 0,-1.4 -0.2,-2.7 -0.4,-4 H 26.2 c 0.1,-0.7 0.3,-1.3 0.5,-2 h 10.4 c -0.2,-0.7 -0.5,-1.4 -0.8,-2 h -8.8 c 0.3,-0.7 0.7,-1.3 1.1,-2 h 6.7 c -0.4,-0.7 -0.9,-1.4 -1.5,-2 h -3.7 c 0.6,-0.7 1.2,-1.3 1.9,-1.9 -3.3,-3.1 -7.8,-4.9 -12.7,-4.9 0,-0.2 0,-0.2 -0.1,-0.2 z"
           fill="#ff5050"
           id="path455" /></g></g><g
       id="g465"><g
         id="g463"><path
           d="m 0.5,32 c 0,10.4 8.4,18.9 18.9,18.9 4.9,0 9.3,-1.9 12.7,-4.9 v 0 0 c 0.7,-0.6 1.3,-1.3 1.9,-2 h -3.9 c -0.5,-0.6 -1,-1.3 -1.4,-1.9 h 6.7 c 0.4,-0.6 0.8,-1.3 1.1,-2 h -8.9 c -0.3,-0.6 -0.6,-1.3 -0.8,-2 h 10.4 c 0.6,-1.9 1,-3.9 1,-6 0,-1.4 -0.2,-2.7 -0.4,-4 H 26.2 c 0.1,-0.7 0.3,-1.3 0.5,-2 h 10.4 c -0.2,-0.7 -0.5,-1.4 -0.8,-2 h -8.8 c 0.3,-0.7 0.7,-1.3 1.1,-2 h 6.7 c -0.4,-0.7 -0.9,-1.4 -1.5,-2 h -3.7 c 0.6,-0.7 1.2,-1.3 1.9,-1.9 -3.3,-3.1 -7.8,-4.9 -12.7,-4.9 0,0 -0.1,0 -0.1,0"
           fill="#e52836"
           id="path461" /></g></g><g
       id="g471"><g
         id="g469"><path
           d="m 19.4,50.9 c 4.9,0 9.3,-1.9 12.7,-4.9 v 0 0 c 0.7,-0.6 1.3,-1.3 1.9,-2 h -3.9 c -0.5,-0.6 -1,-1.3 -1.4,-1.9 h 6.7 c 0.4,-0.6 0.8,-1.3 1.1,-2 h -8.9 c -0.3,-0.6 -0.6,-1.3 -0.8,-2 h 10.4 c 0.6,-1.9 1,-3.9 1,-6 0,-1.4 -0.2,-2.7 -0.4,-4 H 26.2 c 0.1,-0.7 0.3,-1.3 0.5,-2 h 10.4 c -0.2,-0.7 -0.5,-1.4 -0.8,-2 h -8.8 c 0.3,-0.7 0.7,-1.3 1.1,-2 h 6.7 c -0.4,-0.7 -0.9,-1.4 -1.5,-2 h -3.7 c 0.6,-0.7 1.2,-1.3 1.9,-1.9 -3.3,-3.1 -7.8,-4.9 -12.7,-4.9 0,0 -0.1,0 -0.1,0"
           fill="#cb2026"
           id="path467" /></g></g><g
       id="g533"><g
         id="g477"><g
           id="g475"><path
             d="m 26.1,36.8 0.3,-1.7 c -0.1,0 -0.3,0.1 -0.5,0.1 -0.7,0 -0.8,-0.4 -0.7,-0.6 l 0.6,-3.5 h 1.1 l 0.3,-1.9 h -1 L 26.4,28 h -2 c 0,0 -1.2,6.6 -1.2,7.4 0,1.2 0.7,1.7 1.6,1.7 0.6,0 1.1,-0.2 1.3,-0.3 z"
             fill="#ffffff"
             id="path473" /></g></g><g
         id="g483"><g
           id="g481"><path
             d="m 26.8,33.6 c 0,2.8 1.9,3.5 3.5,3.5 1.5,0 2.1,-0.3 2.1,-0.3 l 0.4,-1.9 c 0,0 -1.1,0.5 -2.1,0.5 -2.2,0 -1.8,-1.6 -1.8,-1.6 H 33 c 0,0 0.3,-1.3 0.3,-1.8 0,-1.3 -0.7,-2.9 -2.9,-2.9 -2.1,-0.2 -3.6,2 -3.6,4.5 z m 3.5,-2.9 c 1.1,0 0.9,1.3 0.9,1.4 H 29 c 0,-0.1 0.2,-1.4 1.3,-1.4 z"
             fill="#ffffff"
             id="path479" /></g></g><g
         id="g489"><g
           id="g487"><path
             d="m 43,36.8 0.4,-2.2 c 0,0 -1,0.5 -1.7,0.5 -1.4,0 -2,-1.1 -2,-2.3 0,-2.4 1.2,-3.7 2.6,-3.7 1,0 1.8,0.6 1.8,0.6 l 0.3,-2.1 c 0,0 -1.2,-0.5 -2.3,-0.5 -2.3,0 -4.6,2 -4.6,5.8 0,2.5 1.2,4.2 3.6,4.2 0.8,0 1.9,-0.3 1.9,-0.3 z"
             fill="#ffffff"
             id="path485" /></g></g><g
         id="g495"><g
           id="g493"><path
             d="m 15.1,28.9 c -1.4,0 -2.4,0.4 -2.4,0.4 L 12.4,31 c 0,0 0.9,-0.4 2.2,-0.4 0.7,0 1.3,0.1 1.3,0.7 0,0.4 -0.1,0.5 -0.1,0.5 0,0 -0.6,0 -0.9,0 -1.7,0 -3.6,0.7 -3.6,3 0,1.8 1.2,2.2 1.9,2.2 1.4,0 2,-0.9 2.1,-0.9 l -0.1,0.8 H 17 l 0.8,-5.5 c 0,-2.4 -2,-2.5 -2.7,-2.5 z m 0.4,4.5 c 0,0.3 -0.2,1.9 -1.4,1.9 -0.6,0 -0.8,-0.5 -0.8,-0.8 0,-0.5 0.3,-1.2 1.8,-1.2 0.3,0.1 0.4,0.1 0.4,0.1 z"
             fill="#ffffff"
             id="path491" /></g></g><g
         id="g501"><g
           id="g499"><path
             d="m 19.7,37 c 0.5,0 3,0.1 3,-2.6 0,-2.5 -2.4,-2 -2.4,-3 0,-0.5 0.4,-0.7 1.1,-0.7 0.3,0 1.4,0.1 1.4,0.1 L 23.1,29 c 0,0 -0.7,-0.2 -1.9,-0.2 -1.5,0 -3,0.6 -3,2.6 0,2.3 2.5,2.1 2.5,3 0,0.6 -0.7,0.7 -1.2,0.7 -0.9,0 -1.8,-0.3 -1.8,-0.3 l -0.3,1.8 c 0.1,0.2 0.6,0.4 2.3,0.4 z"
             fill="#ffffff"
             id="path497" /></g></g><g
         id="g507"><g
           id="g505"><path
             d="M 59.6,27.3 59.2,30 c 0,0 -0.8,-1 -1.9,-1 -1.8,0 -3.4,2.2 -3.4,4.8 0,1.6 0.8,3.3 2.5,3.3 1.2,0 1.9,-0.8 1.9,-0.8 L 58.2,37 h 2 l 1.5,-9.6 z m -0.9,5.3 c 0,1.1 -0.5,2.5 -1.6,2.5 -0.7,0 -1.1,-0.6 -1.1,-1.6 0,-1.6 0.7,-2.6 1.6,-2.6 0.7,0 1.1,0.5 1.1,1.7 z"
             fill="#ffffff"
             id="path503" /></g></g><g
         id="g513"><g
           id="g511"><path
             d="m 4.2,36.9 1.2,-7.2 0.2,7.2 H 7 l 2.6,-7.2 -1.1,7.2 h 2.1 l 1.6,-9.6 H 8.9 l -2,5.9 -0.1,-5.9 H 3.9 l -1.6,9.6 z"
             fill="#ffffff"
             id="path509" /></g></g><g
         id="g519"><g
           id="g517"><path
             d="m 35.2,36.9 c 0.6,-3.3 0.7,-6 2.1,-5.5 0.2,-1.3 0.5,-1.8 0.7,-2.3 0,0 -0.1,0 -0.4,0 -0.9,0 -1.6,1.2 -1.6,1.2 l 0.2,-1.1 H 34.3 L 33,37 h 2.2 z"
             fill="#ffffff"
             id="path515" /></g></g><g
         id="g525"><g
           id="g523"><path
             d="m 47.6,28.9 c -1.4,0 -2.4,0.4 -2.4,0.4 L 44.9,31 c 0,0 0.9,-0.4 2.2,-0.4 0.7,0 1.3,0.1 1.3,0.7 0,0.4 -0.1,0.5 -0.1,0.5 0,0 -0.6,0 -0.9,0 -1.7,0 -3.6,0.7 -3.6,3 0,1.8 1.2,2.2 1.9,2.2 1.4,0 2,-0.9 2.1,-0.9 l -0.1,0.8 h 1.8 l 0.8,-5.5 c 0.1,-2.4 -2,-2.5 -2.7,-2.5 z m 0.5,4.5 c 0,0.3 -0.2,1.9 -1.4,1.9 -0.6,0 -0.8,-0.5 -0.8,-0.8 0,-0.5 0.3,-1.2 1.8,-1.2 0.3,0.1 0.3,0.1 0.4,0.1 z"
             fill="#ffffff"
             id="path521" /></g></g><g
         id="g531"><g
           id="g529"><path
             d="m 52,36.9 c 0.6,-3.3 0.7,-6 2.1,-5.5 0.2,-1.3 0.5,-1.8 0.7,-2.3 0,0 -0.1,0 -0.4,0 -0.9,0 -1.6,1.2 -1.6,1.2 L 53,29.2 H 51.1 L 49.8,37 H 52 Z"
             fill="#ffffff"
             id="path527" /></g></g></g><g
       id="g595"><g
         id="g539"><g
           id="g537"><path
             d="m 23,35.4 c 0,1.2 0.7,1.7 1.6,1.7 0.7,0 1.3,-0.2 1.5,-0.3 l 0.3,-1.7 c -0.1,0 -0.3,0.1 -0.5,0.1 -0.7,0 -0.8,-0.4 -0.7,-0.6 l 0.6,-3.5 h 1.1 l 0.3,-1.9 h -1 L 26.4,28"
             fill="#dce5e5"
             id="path535" /></g></g><g
         id="g545"><g
           id="g543"><path
             d="m 27.8,33.6 c 0,2.8 0.9,3.5 2.5,3.5 1.5,0 2.1,-0.3 2.1,-0.3 l 0.4,-1.9 c 0,0 -1.1,0.5 -2.1,0.5 -2.2,0 -1.8,-1.6 -1.8,-1.6 H 33 c 0,0 0.3,-1.3 0.3,-1.8 0,-1.3 -0.7,-2.9 -2.9,-2.9 -2.1,-0.2 -2.6,2 -2.6,4.5 z m 2.5,-2.9 c 1.1,0 1.3,1.3 1.3,1.4 H 29 c 0,-0.1 0.2,-1.4 1.3,-1.4 z"
             fill="#dce5e5"
             id="path541" /></g></g><g
         id="g551"><g
           id="g549"><path
             d="m 43,36.8 0.4,-2.2 c 0,0 -1,0.5 -1.7,0.5 -1.4,0 -2,-1.1 -2,-2.3 0,-2.4 1.2,-3.7 2.6,-3.7 1,0 1.8,0.6 1.8,0.6 l 0.3,-2.1 c 0,0 -1.2,-0.5 -2.3,-0.5 -2.3,0 -3.6,2 -3.6,5.8 0,2.5 0.2,4.2 2.6,4.2 0.8,0 1.9,-0.3 1.9,-0.3 z"
             fill="#dce5e5"
             id="path547" /></g></g><g
         id="g557"><g
           id="g555"><path
             d="m 12.4,31.1 c 0,0 0.9,-0.4 2.2,-0.4 0.7,0 1.3,0.1 1.3,0.7 0,0.4 -0.1,0.5 -0.1,0.5 0,0 -0.6,0 -0.9,0 -1.7,0 -3.6,0.7 -3.6,3 0,1.8 1.2,2.2 1.9,2.2 1.4,0 2,-0.9 2.1,-0.9 L 15.2,37 H 17 l 0.8,-5.5 c 0,-2.3 -2,-2.4 -2.8,-2.4 m 1.5,4.3 c 0,0.3 -1.2,1.9 -2.4,1.9 -0.6,0 -0.8,-0.5 -0.8,-0.8 0,-0.5 0.3,-1.2 1.8,-1.2 0.3,0.1 1.4,0.1 1.4,0.1 z"
             fill="#dce5e5"
             id="path553" /></g></g><g
         id="g563"><g
           id="g561"><path
             d="m 17.5,36.8 c 0,0 0.6,0.2 2.3,0.2 0.5,0 3,0.1 3,-2.6 0,-2.5 -2.4,-2 -2.4,-3 0,-0.5 0.4,-0.7 1.1,-0.7 0.3,0 1.4,0.1 1.4,0.1 L 23.2,29 c 0,0 -0.7,-0.2 -1.9,-0.2 -1.5,0 -2,0.6 -2,2.6 0,2.3 1.5,2.1 1.5,3 0,0.6 -0.7,0.7 -1.2,0.7"
             fill="#dce5e5"
             id="path559" /></g></g><g
         id="g569"><g
           id="g567"><path
             d="m 59.2,30 c 0,0 -0.8,-1 -1.9,-1 -1.8,0 -2.4,2.2 -2.4,4.8 0,1.6 -0.2,3.3 1.5,3.3 1.2,0 1.9,-0.8 1.9,-0.8 L 58.2,37 h 2 l 1.5,-9.6 m -2.6,5.2 c 0,1.1 -0.9,2.5 -2,2.5 -0.7,0 -1.1,-0.6 -1.1,-1.6 0,-1.6 0.7,-2.6 1.6,-2.6 0.7,0 1.5,0.5 1.5,1.7 z"
             fill="#dce5e5"
             id="path565" /></g></g><g
         id="g575"><g
           id="g573"><path
             d="m 4.2,36.9 1.2,-7.2 0.2,7.2 H 7 l 2.6,-7.2 -1.1,7.2 h 2.1 l 1.6,-9.6 H 9.7 L 6.9,33.2 6.8,27.3 H 5.7 l -3.4,9.6 z"
             fill="#dce5e5"
             id="path571" /></g></g><g
         id="g581"><g
           id="g579"><path
             d="m 33.1,36.9 h 2.1 c 0.6,-3.3 0.7,-6 2.1,-5.5 0.2,-1.3 0.5,-1.8 0.7,-2.3 0,0 -0.1,0 -0.4,0 -0.9,0 -1.6,1.2 -1.6,1.2 l 0.2,-1.1"
             fill="#dce5e5"
             id="path577" /></g></g><g
         id="g587"><g
           id="g585"><path
             d="m 44.9,31.1 c 0,0 0.9,-0.4 2.2,-0.4 0.7,0 1.3,0.1 1.3,0.7 0,0.4 -0.1,0.5 -0.1,0.5 0,0 -0.6,0 -0.9,0 -1.7,0 -3.6,0.7 -3.6,3 0,1.8 1.2,2.2 1.9,2.2 1.4,0 2,-0.9 2.1,-0.9 L 47.7,37 h 1.8 l 0.8,-5.5 c 0,-2.3 -2,-2.4 -2.8,-2.4 m 1.5,4.3 c 0,0.3 -1.2,1.9 -2.4,1.9 -0.6,0 -0.8,-0.5 -0.8,-0.8 0,-0.5 0.3,-1.2 1.8,-1.2 0.4,0.1 1.4,0.1 1.4,0.1 z"
             fill="#dce5e5"
             id="path583" /></g></g><g
         id="g593"><g
           id="g591"><path
             d="M 49.9,36.9 H 52 c 0.6,-3.3 0.7,-6 2.1,-5.5 0.2,-1.3 0.5,-1.8 0.7,-2.3 0,0 -0.1,0 -0.4,0 -0.9,0 -1.6,1.2 -1.6,1.2 L 53,29.2"
             fill="#dce5e5"
             id="path589" /></g></g></g></g></svg>
