<?xml version="1.0" encoding="utf-8"?>
<!-- Generator: Adobe Illustrator 26.0.2, SVG Export Plug-In . SVG Version: 6.00 Build 0)  -->
<svg version="1.1" id="Ebene_1" xmlns="http://www.w3.org/2000/svg" xmlns:xlink="http://www.w3.org/1999/xlink" x="0px" y="0px"
	 viewBox="0 0 112.3 24.1" style="enable-background:new 0 0 112.3 24.1;" xml:space="preserve">
<style type="text/css">
	.st0{fill:#E9EAED;}
	.st1{fill-rule:evenodd;clip-rule:evenodd;fill:#EB611D;}
	.st2{fill-rule:evenodd;clip-rule:evenodd;fill:#E41718;}
	.st3{fill-rule:evenodd;clip-rule:evenodd;fill:#F69F11;}
	.st4{fill:#3151A0;}
	.st5{fill-rule:evenodd;clip-rule:evenodd;fill:#FFFFFF;}
	.st6{fill:#FFFFFF;stroke:#F7F8F9;}
	.st7{fill:#E21B37;}
	.st8{fill:#0B457C;}
	.st9{fill:#037C85;}
	.st10{fill:#FFFFFF;}
</style>
<path class="st0" d="M4.4,0.1h28.5c1.8,0,3.2,1.5,3.2,3.2v17.5c0,1.8-1.5,3.2-3.2,3.2H4.4c-1.8,0-3.2-1.5-3.2-3.2V3.3
	C1.2,1.6,2.6,0.1,4.4,0.1z"/>
<path class="st1" d="M23.8,18.9c3.7,0,6.8-3.1,6.8-6.9c0-3.8-3-6.9-6.8-6.9c-1.7,0-3.2,0.6-4.4,1.6c-1.2-1-2.7-1.6-4.4-1.6
	c-3.7,0-6.8,3.1-6.8,6.9c0,3.8,3,6.9,6.8,6.9c1.7,0,3.2-0.6,4.4-1.6C20.5,18.3,22.1,18.9,23.8,18.9z"/>
<path class="st2" d="M19.4,17.3C17.9,16,17,14.1,17,12c0-2.1,0.9-4,2.4-5.3c-1.2-1-2.7-1.6-4.4-1.6c-3.7,0-6.8,3.1-6.8,6.9
	c0,3.8,3,6.9,6.8,6.9C16.6,18.9,18.2,18.3,19.4,17.3z"/>
<path class="st3" d="M19.4,17.3c1.5-1.3,2.4-3.2,2.4-5.3c0-2.1-0.9-4-2.4-5.3c1.2-1,2.7-1.6,4.4-1.6c3.7,0,6.8,3.1,6.8,6.9
	c0,3.8-3,6.9-6.8,6.9C22.1,18.9,20.5,18.3,19.4,17.3z"/>
<path class="st4" d="M42.4,0h28.5c1.8,0,3.2,1.5,3.2,3.2v17.5c0,1.8-1.5,3.2-3.2,3.2H42.4c-1.8,0-3.2-1.5-3.2-3.2V3.2
	C39.2,1.5,40.6,0,42.4,0z"/>
<path class="st5" d="M49.9,16.6h-2.3l-1.8-6.7c-0.1-0.3-0.3-0.6-0.5-0.7c-0.6-0.3-1.4-0.6-2.1-0.7V8.2H47c0.5,0,0.9,0.4,1,0.8
	l0.9,4.8l2.3-5.7h2.3L49.9,16.6z M54.7,16.6h-2.2l1.8-8.4h2.2L54.7,16.6z M59.4,10.5c0.1-0.5,0.5-0.7,0.9-0.7
	c0.7-0.1,1.5,0.1,2.1,0.4l0.4-1.8c-0.6-0.3-1.4-0.4-2-0.4c-2.1,0-3.7,1.2-3.7,2.8c0,1.2,1.1,1.9,1.9,2.3c0.8,0.4,1.2,0.6,1.1,1
	c0,0.6-0.6,0.8-1.3,0.8c-0.8,0-1.6-0.2-2.3-0.5l-0.4,1.8c0.8,0.3,1.6,0.5,2.4,0.5c2.4,0.1,3.9-1.1,3.9-2.8
	C62.5,11.6,59.4,11.5,59.4,10.5z M70.2,16.6l-1.8-8.4h-1.9c-0.4,0-0.8,0.3-0.9,0.6l-3.2,7.7h2.3l0.5-1.2h2.8l0.3,1.2H70.2z
	 M66.9,10.4l0.6,3.2h-1.8L66.9,10.4z"/>
<path class="st6" d="M79.9,0.5h28.5c1.5,0,2.7,1.2,2.7,2.7v17.5c0,1.5-1.2,2.7-2.7,2.7H79.9c-1.5,0-2.7-1.2-2.7-2.7V3.2
	C77.2,1.7,78.4,0.5,79.9,0.5z"/>
<path class="st7" d="M86.7,4h6.4c0.9,0,1.4,0.7,1.2,1.6l-3,12.7c-0.2,0.9-1.1,1.6-2,1.6H83c-0.9,0-1.4-0.7-1.2-1.6l3-12.7
	C84.9,4.7,85.8,4,86.7,4z"/>
<path class="st8" d="M92.5,4h7.3c0.9,0,0.5,0.7,0.3,1.6l-3,12.7C97,19.3,97,20,96.1,20h-7.3c-0.9,0-1.4-0.7-1.2-1.6l3-12.7
	C90.8,4.7,91.6,4,92.5,4z"/>
<path class="st9" d="M99.6,4h6.4c0.9,0,1.4,0.7,1.2,1.6l-3,12.7c-0.2,0.9-1.1,1.6-2,1.6h-6.4c-0.9,0-1.4-0.7-1.2-1.6l3-12.7
	C97.8,4.7,98.7,4,99.6,4z"/>
<path class="st10" d="M88.4,8.1c-0.7,0-0.8,0-0.9,0c0,0.1-0.5,2.2-0.5,2.2c-0.1,0.4-0.2,0.7-0.4,0.9c-0.1,0.1-0.3,0.2-0.5,0.2
	c-0.3,0-0.5-0.1-0.5-0.4l0-0.1c0,0,0.1-0.6,0.1-0.6c0,0,0.5-1.9,0.5-2.1c0,0,0,0,0,0c-0.9,0-1.1,0-1.1,0c0,0,0,0.1,0,0.1l-0.5,2.1
	l0,0.2l-0.1,0.6c0,0.2,0,0.3,0.1,0.4c0.2,0.4,0.8,0.4,1.2,0.4c0.4,0,0.9-0.1,1.2-0.3c0.5-0.3,0.6-0.7,0.7-1.2l0.1-0.2
	C87.8,10.3,88.3,8.4,88.4,8.1C88.4,8.1,88.4,8.1,88.4,8.1z M90,9.6c-0.1,0-0.3,0-0.5,0.1c-0.1,0-0.1,0.1-0.2,0.1l0.1-0.2l0,0
	c-0.4,0.1-0.5,0.1-0.9,0.1l0,0c0,0.4-0.1,0.6-0.2,1.3c-0.1,0.3-0.1,0.5-0.2,0.8l0,0c0.4,0,0.5,0,0.8,0l0,0c0-0.2,0-0.3,0.1-0.7
	c0-0.2,0.1-0.7,0.2-0.8c0.1,0,0.2-0.1,0.2-0.1c0.2,0,0.2,0.2,0.2,0.2c0,0.1-0.1,0.5-0.1,0.8l0,0.2c0,0.1-0.1,0.3-0.1,0.4l0,0
	c0.4,0,0.5,0,0.8,0l0,0c0.1-0.3,0.1-0.4,0.2-0.9l0.1-0.2c0.1-0.4,0.2-0.7,0.1-0.8C90.4,9.7,90.2,9.6,90,9.6z M91.8,10.1
	c-0.2,0-0.3,0.1-0.5,0.1c-0.1,0-0.2,0-0.4,0.1l0,0l0,0c0,0.1,0,0.3-0.1,0.4c0,0.2-0.1,0.3-0.1,0.6c0,0.2-0.1,0.3-0.1,0.3
	c0,0.1-0.1,0.1-0.1,0.3l0,0l0,0c0.2,0,0.3,0,0.4,0c0.1,0,0.2,0,0.4,0l0,0l0,0c0-0.2,0-0.2,0-0.3c0-0.1,0-0.2,0.1-0.5
	c0-0.2,0.1-0.3,0.1-0.5C91.7,10.4,91.8,10.3,91.8,10.1L91.8,10.1L91.8,10.1z M91.8,9.5c-0.2-0.1-0.5-0.1-0.7,0.1
	C90.9,9.7,90.9,9.9,91,10c0.2,0.1,0.5,0.1,0.7-0.1C92,9.8,92,9.6,91.8,9.5z M92.9,12c0.4,0,0.7-0.1,1-0.4c0.2-0.2,0.3-0.6,0.4-0.8
	c0.1-0.5,0-0.7-0.1-0.9c-0.2-0.2-0.5-0.3-0.8-0.3c-0.2,0-0.6,0-1,0.3c-0.2,0.2-0.4,0.5-0.4,0.8c-0.1,0.3-0.1,0.8,0.4,1
	C92.5,11.9,92.8,12,92.9,12z M92.9,10.8c0.1-0.4,0.2-0.7,0.4-0.7c0.2,0,0.2,0.2,0.1,0.6c0,0.1-0.1,0.4-0.2,0.5
	c-0.1,0.1-0.2,0.2-0.2,0.2c0,0-0.2,0-0.2-0.2C92.8,11.1,92.8,11,92.9,10.8z M95.2,11.9L95.2,11.9c0.1-0.2,0.1-0.3,0.2-0.7
	c0-0.2,0.1-0.7,0.2-0.8c0.1,0,0.2-0.1,0.2-0.1c0.2,0,0.2,0.2,0.2,0.2c0,0.1-0.1,0.5-0.1,0.8l0,0.2c0,0.1-0.1,0.3-0.1,0.4l0,0
	c0.4,0,0.5,0,0.8,0l0,0c0.1-0.3,0.1-0.4,0.2-0.9l0.1-0.2c0.1-0.4,0.2-0.7,0.1-0.8c-0.1-0.2-0.3-0.3-0.5-0.3c-0.1,0-0.3,0-0.5,0.1
	c-0.1,0-0.1,0.1-0.2,0.1l0.1-0.2l0,0c-0.4,0.1-0.5,0.1-0.9,0.1l0,0c0,0.4-0.1,0.6-0.2,1.3c-0.1,0.3-0.1,0.5-0.2,0.8l0,0
	C94.8,11.9,94.9,11.9,95.2,11.9z M98,11.9c0-0.1,0.2-0.8,0.2-0.8c0,0,0.1-0.5,0.1-0.5c0,0,0-0.1,0.1-0.1h0.1c0.5,0,1.1,0,1.6-0.3
	c0.3-0.2,0.5-0.6,0.6-1c0-0.1,0-0.2,0-0.3c0-0.2,0-0.3-0.1-0.4c-0.2-0.3-0.7-0.3-1.2-0.3c0,0-0.3,0-0.3,0c-0.7,0-1,0-1.1,0
	c0,0.1,0,0.1,0,0.1s-0.2,1.2-0.2,1.2c0,0-0.6,2.4-0.6,2.6C97.6,11.9,97.9,11.9,98,11.9z M98.4,9.9c0,0,0.3-1.1,0.3-1.1l0-0.1l0,0
	l0.1,0c0,0,0.5,0,0.6,0c0.2,0.1,0.3,0.3,0.2,0.6c-0.1,0.3-0.2,0.5-0.4,0.6c-0.2,0.1-0.4,0.1-0.6,0.1L98.4,9.9L98.4,9.9z M100.1,10.9
	c-0.1,0.3-0.2,0.8,0.3,1c0.2,0.1,0.3,0.1,0.4,0.1c0.2,0,0.3-0.1,0.4-0.2c0,0,0,0.1,0,0.1l0,0c0.4,0,0.5,0,0.9,0l0,0
	c0.1-0.3,0.1-0.7,0.3-1.3c0.1-0.3,0.1-0.6,0.2-0.9l0,0c-0.4,0.1-0.5,0.1-0.9,0.1l0,0c0,0,0,0.1,0,0.1c-0.1-0.1-0.1-0.2-0.3-0.2
	c-0.2-0.1-0.6,0-0.9,0.3C100.2,10.3,100.1,10.6,100.1,10.9z M100.9,10.9c0.1-0.4,0.2-0.7,0.4-0.7c0.2,0,0.2,0.1,0.2,0.4
	c0,0.1,0,0.1,0,0.2c0,0.1-0.1,0.2-0.1,0.3c0,0.1-0.1,0.1-0.1,0.2c-0.1,0.1-0.2,0.2-0.3,0.2c0,0-0.2,0-0.2-0.2
	C100.8,11.1,100.9,11,100.9,10.9z M105.3,9.7L105.3,9.7c-0.4,0-0.5,0.1-0.9,0.1l0,0c0,0,0,0,0,0l0,0c-0.3,0.6-0.3,0.5-0.5,1
	c0,0,0,0,0-0.1l-0.1-1.1l0,0c-0.4,0.1-0.4,0.1-0.8,0.1l0,0c0,0,0,0,0,0l0,0c0,0.2,0,0.2,0.1,0.6c0,0.2,0.1,0.4,0.1,0.6
	c0,0.3,0.1,0.5,0.1,0.9c-0.3,0.4-0.3,0.6-0.6,1l0,0l-0.2,0.3c0,0,0,0-0.1,0.1c0,0-0.1,0-0.1,0h-0.1l-0.1,0.5l0.5,0
	c0.3,0,0.5-0.1,0.6-0.3l0.3-0.5h0l0,0C103.7,12.4,105.3,9.7,105.3,9.7z M100.1,16h-0.2l0.8-2.6h0.3l0.1-0.3l0,0.3
	c0,0.2,0.1,0.3,0.5,0.3h0.4l0.1-0.5h-0.2c-0.1,0-0.1,0-0.1-0.1l0-0.3H101v0c-0.3,0-1,0-1.2,0.1c-0.2,0-0.4,0.2-0.4,0.2l0.1-0.3h-0.8
	l-0.2,0.5L97.8,16h-0.2l-0.2,0.5H99l-0.1,0.2h0.7l0-0.2h0.2L100.1,16z M99.4,13.9c-0.1,0-0.3,0.1-0.3,0.1l0.2-0.7h0.6l-0.1,0.5
	C99.8,13.9,99.6,13.9,99.4,13.9z M99.5,14.9c0,0-0.2,0-0.3,0.1c-0.1,0-0.4,0.2-0.4,0.2l0.2-0.7h0.6L99.5,14.9z M99.1,16h-0.6
	l0.2-0.6h0.6L99.1,16z M100.6,14.4h0.9l-0.1,0.4h-0.9l-0.1,0.4h0.8l-0.6,0.8c0,0.1-0.1,0.1-0.1,0.1c0,0-0.1,0-0.2,0H100l-0.1,0.5
	h0.6c0.3,0,0.5-0.1,0.6-0.3l0.4-0.5l0.1,0.6c0,0.1,0.1,0.2,0.1,0.2c0.1,0,0.1,0.1,0.2,0.1c0.1,0,0.2,0,0.2,0h0.3l0.2-0.5h-0.1
	c-0.1,0-0.2,0-0.2,0c0,0,0-0.1,0-0.1l-0.1-0.6h-0.4l0.2-0.2h0.9l0.1-0.4H102l0.1-0.4h0.8l0.2-0.5h-2.4L100.6,14.4z M93.2,16.1
	l0.2-0.7h0.8l0.2-0.5h-0.8l0.1-0.4h0.8l0.2-0.5h-2l-0.1,0.5H93l-0.1,0.4h-0.5l-0.2,0.5h0.5l-0.3,0.9c0,0.1,0,0.2,0.1,0.2
	c0,0.1,0.1,0.1,0.1,0.1c0.1,0,0.1,0,0.2,0h0.9l0.2-0.6l-0.4,0.1C93.4,16.2,93.2,16.2,93.2,16.1z M93.3,12.9l-0.2,0.4
	c0,0.1-0.1,0.1-0.1,0.2c0,0-0.1,0-0.2,0h-0.1l-0.1,0.5h0.4c0.2,0,0.3-0.1,0.4-0.1c0.1,0,0.1,0,0.1-0.1l0.1-0.1h1.1l0.2-0.5H94
	l0.1-0.3H93.3z M95,16.1c0,0,0-0.1,0-0.2l0.3-1h1.1c0.2,0,0.3,0,0.4,0c0.1,0,0.2,0,0.3-0.1c0.1-0.1,0.2-0.1,0.2-0.2
	c0-0.1,0.1-0.2,0.2-0.4l0.4-1.3l-1.2,0c0,0-0.4,0.1-0.5,0.1c-0.2,0.1-0.4,0.2-0.4,0.2l0.1-0.4h-0.7l-1,3.3c0,0.1-0.1,0.2-0.1,0.3
	c0,0.1,0.1,0.1,0.1,0.2c0.1,0,0.1,0,0.2,0c0.1,0,0.2,0,0.4,0h0.5l0.2-0.6l-0.5,0C95.1,16.2,95,16.1,95,16.1z M95.6,14.2h1.2
	l-0.1,0.2c0,0,0,0-0.2,0h-1L95.6,14.2z M95.8,13.4H97l-0.1,0.3c0,0-0.6,0-0.6,0c-0.4,0.1-0.6,0.3-0.6,0.3L95.8,13.4z M96.7,15.2
	C96.7,15.2,96.7,15.3,96.7,15.2c-0.1,0.1-0.1,0.1-0.2,0.1h-0.2l0-0.3h-0.7l0,1.4c0,0.1,0,0.2,0.1,0.2c0.1,0.1,0.3,0.1,0.6,0.1h0.4
	l0.2-0.5l-0.4,0l-0.1,0c0,0,0,0-0.1,0c0,0,0,0,0-0.1l0-0.4l0.4,0c0.2,0,0.3-0.1,0.4-0.1c0.1-0.1,0.1-0.1,0.1-0.2l0.1-0.3h-0.5
	L96.7,15.2z"/>
</svg>
