<svg xmlns="http://www.w3.org/2000/svg" width="20" height="20" viewBox="0 0 20 20" fill="none">
  <g clip-path="url(#clip0_155_4536)">
    <path fill-rule="evenodd" clip-rule="evenodd" d="M11.1872 0.928627C11.6188 1.16392 11.9727 1.52225 12.205 1.95922L19.7001 16.0532C20.3559 17.2865 19.9003 18.8245 18.6823 19.4885C18.3174 19.6875 17.9093 19.7917 17.4948 19.7917H2.50467C1.12138 19.7917 0 18.6562 0 17.2556C0 16.8359 0.102869 16.4228 0.299381 16.0532L7.79447 1.95922C8.45029 0.725995 9.96927 0.264585 11.1872 0.928627ZM10 13.9583C9.30964 13.9583 8.75 14.518 8.75 15.2083C8.75 15.8987 9.30964 16.4583 10 16.4583C10.6904 16.4583 11.25 15.8987 11.25 15.2083C11.25 14.518 10.6904 13.9583 10 13.9583ZM10 6.45833C9.30964 6.45833 8.75 7.01798 8.75 7.70833V11.4583C8.75 12.1487 9.30964 12.7083 10 12.7083C10.6904 12.7083 11.25 12.1487 11.25 11.4583V7.70833C11.25 7.01798 10.6904 6.45833 10 6.45833Z" fill="#FF4F42"/>
  </g>
  <defs>
    <clipPath id="clip0_155_4536">
      <rect width="20" height="20" fill="white"/>
    </clipPath>
  </defs>
</svg>