<svg xmlns="http://www.w3.org/2000/svg" width="20" height="20" viewBox="0 0 20 20" fill="none">
  <g clip-path="url(#clip0_55_228)">
    <path fill-rule="evenodd" clip-rule="evenodd" d="M10 20C4.47715 20 0 15.5228 0 10C0 4.47715 4.47715 0 10 0C15.5228 0 20 4.47715 20 10C20 15.5228 15.5228 20 10 20ZM10 7.5C10.6904 7.5 11.25 6.94036 11.25 6.25C11.25 5.55964 10.6904 5 10 5C9.30964 5 8.75 5.55964 8.75 6.25C8.75 6.94036 9.30964 7.5 10 7.5ZM10 15C10.6904 15 11.25 14.4404 11.25 13.75V10L11.2443 9.87962C11.1837 9.24574 10.6497 8.75 10 8.75C9.30964 8.75 8.75 9.30964 8.75 10V13.75L8.75572 13.8704C8.81629 14.5043 9.35025 15 10 15Z" fill="#0EA5E9"/>
  </g>
  <defs>
    <clipPath id="clip0_55_228">
      <rect width="20" height="20" fill="white"/>
    </clipPath>
  </defs>
</svg>