<svg xmlns="http://www.w3.org/2000/svg" width="20" height="20" viewBox="0 0 20 20" fill="none">
  <g clip-path="url(#clip0_155_5305)">
    <path fill-rule="evenodd" clip-rule="evenodd" d="M10 0C15.5228 0 20 4.47715 20 10C20 15.5228 15.5228 20 10 20C4.47715 20 0 15.5228 0 10C0 4.47715 4.47715 0 10 0ZM10 12.5C9.30964 12.5 8.75 13.0596 8.75 13.75C8.75 14.4404 9.30964 15 10 15C10.6904 15 11.25 14.4404 11.25 13.75C11.25 13.0596 10.6904 12.5 10 12.5ZM10 5C9.30964 5 8.75 5.55964 8.75 6.25V10C8.75 10.6904 9.30964 11.25 10 11.25C10.6904 11.25 11.25 10.6904 11.25 10V6.25C11.25 5.55964 10.6904 5 10 5Z" fill="#FF8E3C"/>
  </g>
  <defs>
    <clipPath id="clip0_155_5305">
      <rect width="20" height="20" fill="white"/>
    </clipPath>
  </defs>
</svg>